<?xml version="1.0" encoding="iso-8859-1"?>
   <!-- Generator: Adobe Illustrator 17.1.0, SVG Export Plug-In . SVG Version: 6.00 Build 0)  -->
   <!DOCTYPE svg PUBLIC "-//W3C//DTD SVG 1.1//EN" "http://www.w3.org/Graphics/SVG/1.1/DTD/svg11.dtd">
<svg version="1.1" id="Capa_1" xmlns="http://www.w3.org/2000/svg" xmlns:xlink="http://www.w3.org/1999/xlink" x="0px" y="0px"
	 viewBox="0 0 321 321" style="enable-background:new 0 0 321 321;" xml:space="preserve">
   <g>
      <path d="M160.5,0C72,0,0,72,0,160.5S72,321,160.5,321S321,249,321,160.5S249,0,160.5,0z M160.5,306C80.271,306,15,240.73,15,160.5
         C15,80.271,80.271,15,160.5,15C240.729,15,306,80.271,306,160.5C306,240.73,240.729,306,160.5,306z"/>
      <path d="M274.019,129.298c-0.882-2.715-3.229-4.694-6.055-5.104l-69.608-10.115l-31.13-63.077c-1.264-2.56-3.871-4.181-6.726-4.181
         c-2.855,0-5.462,1.621-6.726,4.181l-31.13,63.077l-69.609,10.115c-2.825,0.41-5.172,2.389-6.054,5.104
         c-0.882,2.715-0.146,5.695,1.898,7.688l50.369,49.098l-11.891,69.328c-0.482,2.814,0.674,5.657,2.984,7.336
         c1.307,0.949,2.854,1.432,4.409,1.432c1.193,0,2.392-0.285,3.489-0.861l62.26-32.732l62.26,32.732
         c2.529,1.328,5.59,1.107,7.898-0.571c2.31-1.678,3.467-4.521,2.983-7.335l-11.891-69.327l50.37-49.098
         C274.165,134.993,274.9,132.013,274.019,129.298z M208.457,178.094c-1.768,1.723-2.574,4.206-2.156,6.639l9.988,58.236
         l-52.299-27.495c-2.185-1.148-4.794-1.148-6.98,0l-52.299,27.495l9.988-58.236c0.417-2.433-0.389-4.915-2.157-6.639l-42.311-41.242
         l58.472-8.497c2.443-0.355,4.554-1.889,5.647-4.103L160.5,71.268l26.149,52.985c1.093,2.213,3.204,3.748,5.648,4.103l58.472,8.497
         L208.457,178.094z"/>
   </g>
</svg>
