<svg id="Facebook" xmlns="http://www.w3.org/2000/svg" width="24" height="24" viewBox="0 0 24 24">
  <defs>
    <style>
      .cls-1 {
        fill: #6d6d6d;
        fill-rule: evenodd;
      }
    </style>
  </defs>
  <path id="_Icon_Color" data-name="🔹 Icon Color" class="cls-1" d="M420,5625.32v21.35a1.323,1.323,0,0,1-1.323,1.33h-6.116v-9.29h3.12l0.467-3.63h-3.587v-2.31c0-1.05.291-1.76,1.8-1.76h1.918v-3.24a23.564,23.564,0,0,0-2.8-.15c-2.766,0-4.659,1.69-4.659,4.79v2.67h-3.128v3.63h3.128V5648h-11.5a1.322,1.322,0,0,1-1.325-1.32v-21.36a1.322,1.322,0,0,1,1.325-1.32h21.35A1.322,1.322,0,0,1,420,5625.32Z" transform="translate(-396 -5624)"/>
</svg>
