<svg id="Google_" data-name="Google+" xmlns="http://www.w3.org/2000/svg" width="24" height="14" viewBox="0 0 24 14">
  <defs>
    <style>
      .cls-1 {
        fill: #6d6d6d;
        fill-rule: evenodd;
      }
    </style>
  </defs>
  <path id="_Icon_Color" data-name="🔹 Icon Color" class="cls-1" d="M447.61,5635a6.777,6.777,0,0,1-6.61,8,7,7,0,0,1,0-14,6.71,6.71,0,0,1,4.69,1.83l-1.9,1.83a3.939,3.939,0,0,0-2.79-1.08,4.421,4.421,0,0,0,0,8.84,3.78,3.78,0,0,0,3.97-3.02H441V5635h6.61Zm-6.61,0,17,2h-3v3h-2v-3h-3v-2h3v-3h2v3h3v2Z" transform="translate(-434 -5629)"/>
</svg>
