<svg id="Instagram" xmlns="http://www.w3.org/2000/svg" width="24" height="24" viewBox="0 0 24 24">
  <defs>
    <style>
      .cls-1 {
        fill: #6d6d6d;
        fill-rule: evenodd;
      }
    </style>
  </defs>
  <path id="_Icon_Color" data-name="🔹 Icon Color" class="cls-1" d="M522,5626.16c-3.2,0-3.583.01-4.849,0.07-3.255.15-4.77,1.69-4.919,4.92-0.057,1.27-.07,1.65-0.07,4.85s0.012,3.58.07,4.85c0.148,3.22,1.659,4.77,4.919,4.92,1.265,0.06,1.645.07,4.849,0.07s3.584-.01,4.85-0.07c3.255-.15,4.77-1.7,4.919-4.92,0.057-1.27.069-1.64,0.069-4.85s-0.011-3.58-.069-4.85c-0.148-3.23-1.667-4.77-4.919-4.92-1.266-.06-1.646-0.07-4.85-0.07h0Zm4.949-2.09c4.362,0.2,6.783,2.63,6.979,6.98,0.058,1.28.072,1.69,0.072,4.95s-0.014,3.67-.073,4.95c-0.2,4.36-2.625,6.78-6.979,6.98-1.28.06-1.689,0.07-4.948,0.07s-3.667-.01-4.948-0.07c-4.362-.2-6.78-2.62-6.98-6.98-0.058-1.28-.072-1.69-0.072-4.95s0.014-3.67.073-4.95c0.2-4.36,2.622-6.78,6.98-6.98,1.28-.06,1.688-0.07,4.947-0.07S525.668,5624.01,526.949,5624.07Zm1.213,11.93a6.162,6.162,0,1,1-6.162-6.16A6.162,6.162,0,0,1,528.162,5636ZM526,5636a4,4,0,1,0-4,4A4,4,0,0,0,526,5636Zm3.845-6.41a1.44,1.44,0,1,1-1.439-1.44A1.436,1.436,0,0,1,529.845,5629.59Z" transform="translate(-510 -5624)"/>
</svg>
