<svg id="Twitter" xmlns="http://www.w3.org/2000/svg" width="24" height="19.5" viewBox="0 0 24 19.5">
  <defs>
    <style>
      .cls-1 {
        fill: #6d6d6d;
        fill-rule: evenodd;
      }
    </style>
  </defs>
  <path id="_Icon_Color" data-name="🔹 Icon Color" class="cls-1" d="M493.543,5630.86A14.006,14.006,0,0,1,472,5643.29a9.9,9.9,0,0,0,7.29-2.04,4.923,4.923,0,0,1-4.6-3.42,4.88,4.88,0,0,0,2.224-.08,4.932,4.932,0,0,1-3.949-4.89,4.812,4.812,0,0,0,2.229.61,4.925,4.925,0,0,1-1.523-6.57,13.953,13.953,0,0,0,10.148,5.14,4.929,4.929,0,0,1,8.391-4.49,9.926,9.926,0,0,0,3.127-1.19,4.927,4.927,0,0,1-2.165,2.72,9.921,9.921,0,0,0,2.828-.77A10.061,10.061,0,0,1,493.543,5630.86Z" transform="translate(-472 -5626)"/>
</svg>
